<?xml version="1.0" standalone="no"?>
<!DOCTYPE svg PUBLIC "-//W3C//DTD SVG 1.1//EN" "http://www.w3.org/Graphics/SVG/1.1/DTD/svg11.dtd" >
<!--
2013-9-30: Created.
-->
<svg>
<metadata>
Created by iconfont
</metadata>
<defs>

<font id="iconfont" horiz-adv-x="1024" >
  <font-face
    font-family="iconfont"
    font-weight="500"
    font-stretch="normal"
    units-per-em="1024"
    ascent="896"
    descent="-128"
  />
    <missing-glyph />
    
    <glyph glyph-name="folder1" unicode="&#58936;" d="M170.666667 810.666667l213.333333 0 85.333333-128 384 0q52.992 0 90.496-37.504t37.504-90.496l0-469.333333q0-52.992-37.504-90.496t-90.496-37.504l-682.666667 0q-52.992 0-90.496 37.504t-37.504 90.496l0 597.333333q0 52.992 37.504 90.496t90.496 37.504zM423.68 597.333333l-82.346667 128-170.666667 0q-17.664 0-30.165333-12.501333t-12.501333-30.165333l0-597.333333q0-17.664 12.501333-30.165333t30.165333-12.501333l682.666667 0q17.664 0 30.165333 12.501333t12.501333 30.165333l0 469.333333q0 17.664-12.501333 30.165333t-30.165333 12.501333l-429.653333 0z"  horiz-adv-x="1024" />

    
    <glyph glyph-name="right-s" unicode="&#58919;" d="M292.9664 731.8528v-695.808c0-40.1408 48.5376-60.3136 77.0048-31.8464L717.824 352.1536c17.6128 17.6128 17.6128 46.1824 0 63.7952L369.9712 763.8016c-28.4672 28.3648-77.0048 8.2944-77.0048-31.9488z"  horiz-adv-x="1024" />

    
    <glyph glyph-name="below-s" unicode="&#58920;" d="M859.8528 603.0336H164.1472c-40.1408 0-60.3136-48.5376-31.8464-77.0048L480.1536 178.17600000000004c17.6128-17.6128 46.1824-17.6128 63.7952 0l347.8528 347.8528c28.3648 28.4672 8.2944 77.0048-31.9488 77.0048z"  horiz-adv-x="1024" />

    
    <glyph glyph-name="paper" unicode="&#58890;" d="M162.475-4.283999999999992V772.245l-0.233 0.116h427.43v-194.103c0-42.875 34.875-77.75 77.75-77.75h193.831c0.04-0.62 0.272-1.436 0.272-2.019l0.311-502.85-699.361 0.077z m647.67 582.465l-142.8 0.077V733.37l142.8-155.19z m92.314 14.408L703.579 808.712c-22.02 23.923-61.4 41.322-93.673 41.322H162.242a77.711 77.711 0 0 1-77.44-77.789v-776.529a77.672 77.672 0 0 1 77.362-77.75h699.672a77.672 77.672 0 0 1 77.362 77.828V498.489c0 31.38-15.457 70.954-36.74 94.1zM667.345 384h-310.69a38.836 38.836 0 0 1 0-77.672h310.69a38.836 38.836 0 0 1 0 77.672m0-194.18h-310.69a38.836 38.836 0 0 1 0-77.673h310.69a38.836 38.836 0 0 1 0 77.672"  horiz-adv-x="1024" />

    
    <glyph glyph-name="tag-o" unicode="&#59338;" d="M833.2-112L538.8 216.2c-14.3 16-39.3 16-53.6 0L190.8-112c-22-24.6-62.8-9-62.8 24V860c0 19.9 16.1 36 36 36h696c19.9 0 36-16.1 36-36v-948c0-33-40.8-48.6-62.8-24zM538.8 324L824 6V824H200v-817.9l285.2 318c14.3 15.9 39.3 15.9 53.6-0.1z"  horiz-adv-x="1024" />

    
    <glyph glyph-name="more" unicode="&#58976;" d="M176 480q48-0.992 79.488-32.512T288 368q-0.992-48-32.512-79.488T176 256q-48 0.992-79.488 32.512T64 368q0.992 48 32.512 79.488T176 480zM512 480q48-0.992 79.488-32.512T624 368q-0.992-48-32.512-79.488T512 256q-48 0.992-79.488 32.512T400 368q0.992 48 32.512 79.488T512 480z m336 0q48-0.992 79.488-32.512T960 368q-0.992-48-32.512-79.488T848 256q-48 0.992-79.488 32.512T736 368q0.992 48 32.512 79.488T848 480z"  horiz-adv-x="1024" />

    
    <glyph glyph-name="Left" unicode="&#59145;" d="M992.064 384.032c0-17.6-14.368-32-32-32H136.416l271.36-298.56c11.84-13.12 10.88-33.28-2.24-45.12a31.776 31.776 0 0 0-45.088 2.24l-320 352a31.488 31.488 0 0 0 0 42.88l320 352a31.904 31.904 0 1 0 47.328-42.88l-271.36-298.56h823.68c17.6 0 32-14.4 32-32"  horiz-adv-x="1024" />

    
    <glyph glyph-name="folder" unicode="&#58932;" d="M832 21.333333h-640A105.386667 105.386667 0 0 0 85.333333 125.013333V642.986667A105.386667 105.386667 0 0 0 192 746.666667h196.266667a42.666667 42.666667 0 0 0 32.853333-15.786667l110.933333-135.68h298.666667A105.386667 105.386667 0 0 0 938.666667 491.52v-366.506667a105.386667 105.386667 0 0 0-106.666667-103.68z"  horiz-adv-x="1024" />

    
    <glyph glyph-name="icon_newfolder" unicode="&#58962;" d="M800 640H544c-17.6 0-32 14.4-32 32 0 52.8-43.2 96-96 96H160c-52.8 0-96-43.2-96-96v-576c0-52.8 43.2-96 96-96h352c17.6 0 32 14.4 32 32s-14.4 32-32 32H160c-17.6 0-32 14.4-32 32V672c0 17.6 14.4 32 32 32h256c17.6 0 32-14.4 32-32 0-52.8 43.2-96 96-96h256c17.6 0 32-14.4 32-32v-96c0-17.6 14.4-32 32-32s32 14.4 32 32v96c0 52.8-43.2 96-96 96zM928 256H768V416c0 17.6-14.4 32-32 32s-32-14.4-32-32v-160H544c-17.6 0-32-14.4-32-32s14.4-32 32-32h160v-160c0-17.6 14.4-32 32-32s32 14.4 32 32V192h160c17.6 0 32 14.4 32 32s-14.4 32-32 32z"  horiz-adv-x="1024" />

    
    <glyph glyph-name="setting1" unicode="&#58959;" d="M962.016 456l-4 24-72.992 24.992q-10.016 30.016-24 58.016L895.04 632l-14.016 19.008q-43.008 60-102.016 103.008l-20 14.016-68.992-35.008q-28 14.016-58.016 24L608 830.016l-24 4q-39.008 6.016-72 6.016t-72-6.016l-24-4-24.992-72.992q-30.016-10.016-56.992-24L265.024 768.032l-20-15.008Q186.016 710.016 143.008 651.008l-14.016-20 34.016-68.992q-14.016-28-24-56.992l-72.992-24.992-4-24q-6.016-39.008-6.016-72t6.016-72l4-24 72.992-24.992q10.016-30.016 24-56.992l-34.016-68.992 14.016-20q22.016-30.016 47.008-55.008 23.008-23.008 55.008-47.008l20-14.016 68.992 34.016q28-14.016 56.992-24L416-61.952l24-4q39.008-6.016 72-6.016t72 6.016l24 4 24.992 72.992q28.992 10.016 56.992 24l68.992-35.008 20 15.008q32 23.008 55.008 47.008 24 23.008 47.008 55.008l14.016 20-34.016 68.992q14.016 28 24 58.016l72.992 24 4 24q6.016 39.008 6.016 72t-6.016 72zM896 384.992V384q0-19.008-2.016-42.016l-36-11.008-31.008-11.008-10.016-32q-8-27.008-20.992-52l-16-28.992 32-63.008q-14.016-16.992-28-31.008v-0.992q-14.016-14.016-32-27.008l-62.016 31.008-28.992-15.008q-26.016-12.992-54.016-22.016l-31.008-10.016-10.016-31.008-12-35.008q-20.992-3.008-42.016-3.008-19.008 0-42.016 3.008l-11.008 35.008-11.008 31.008-31.008 10.016q-28 8.992-52.992 22.016l-28.992 15.008-30.016-15.008-32.992-16q-16.992 12.992-31.008 28-15.008 14.016-28 31.008l31.008 62.016-15.008 28.992q-14.016 27.008-22.016 52.992l-10.016 32-66.016 22.016q-3.008 20.992-3.008 42.016 0 19.008 3.008 42.016l66.016 22.016 10.016 31.008q8 27.008 22.016 52.992l15.008 30.016-15.008 28.992-16 32.992q26.016 32.992 59.008 59.008l62.016-31.008 30.016 15.008q24.992 14.016 52.992 22.016l31.008 10.016 10.016 31.008 12 36q23.008 2.016 42.016 2.016 20 0 42.016-2.016l22.016-67.008 31.008-8.992q28-8.992 54.016-22.016l28.992-16 62.016 32q32.992-27.008 60-60l-32-62.016 15.008-28.992q14.016-26.016 23.008-52.992l8.992-32 31.008-10.016 36-12q3.008-22.016 2.016-40.992z m-384 172.992q-72 0-123.008-51.008t-51.008-123.008 51.008-123.008T512 209.952t123.008 51.008 51.008 123.008-51.008 123.008T512 557.984z m72-245.984q-30.016-30.016-72-30.016t-72 30.016-30.016 72 30.016 72 72.512 30.016 72-30.016 29.504-72-30.016-72z"  horiz-adv-x="1024" />

    
    <glyph glyph-name="yidiandiantubiao04" unicode="&#58888;" d="M314.423237-93.029046M709.576763-93.029046M554.489627 697.278008M958.141079 384.979253 958.141079 384.979253 633.095436 701.526971l0 0c-31.86722 29.742739-74.356846 48.863071-121.095436 48.863071-44.614108 0-87.103734-16.995851-118.970954-46.738589l0 0L67.983402 387.103734l0 0c-12.746888-10.622407-19.120332-25.493776-19.120332-42.489627 0-31.86722 25.493776-57.360996 57.360996-57.360996l0 0 0-348.414938c0-48.863071 38.240664-87.103734 87.103734-87.103734l180.580913 0 0 0c31.86722 0 57.360996 25.493776 57.360996 57.360996l0 0 0 159.3361c0 44.614108 36.116183 80.73029 80.73029 80.73029 44.614108 0 80.73029-36.116183 80.73029-80.73029l0-159.3361c0-31.86722 25.493776-57.360996 57.360996-57.360996l180.580913 0c48.863071 0 87.103734 38.240664 87.103734 87.103734L917.775934 285.128631l0 0c31.86722 0 57.360996 25.493776 57.360996 57.360996C975.136929 359.485477 968.763485 374.356846 958.141079 384.979253zM888.033195 344.614108 888.033195 344.614108 888.033195 344.614108C888.033195 344.614108 888.033195 344.614108 888.033195 344.614108L888.033195 344.614108c-16.995851 0-29.742739-12.746888-29.742739-29.742739l0-361.161826c0-25.493776-21.244813-46.738589-46.738589-46.738589l-144.46473 0 0 0c-10.622407 0-16.995851 8.497925-16.995851 16.995851l0 0 0 142.340249c0 76.481328-61.609959 138.091286-138.091286 138.091286-76.481328 0-138.091286-61.609959-138.091286-138.091286l0-142.340249 0 0c0-10.622407-8.497925-16.995851-16.995851-16.995851l0 0L210.323651-93.029046c-25.493776 0-46.738589 21.244813-46.738589 46.738589l0 361.161826c0 16.995851-12.746888 29.742739-29.742739 29.742739l0 0 0 0c-6.373444 0-10.622407 4.248963-10.622407 10.622407 0 4.248963 2.124481 6.373444 4.248963 8.497925l0 0c0 0 212.448133 208.19917 303.80083 295.302905l0 0c21.244813 21.244813 48.863071 33.991701 80.73029 33.991701 31.86722 0 59.485477-12.746888 80.73029-33.991701l0 0 301.676349-295.302905c2.124481-2.124481 4.248963-4.248963 4.248963-8.497925C898.655602 348.863071 894.406639 344.614108 888.033195 344.614108z"  horiz-adv-x="1024" />

    
    <glyph glyph-name="search1" unicode="&#59358;" d="M690.272 420.576q0 105.728-75.136 180.864t-180.864 75.136-180.864-75.136-75.136-180.864 75.136-180.864 180.864-75.136 180.864 75.136 75.136 180.864zM982.848-54.848q0-29.728-21.728-51.424t-51.424-21.728q-30.848 0-51.424 21.728l-196 195.424q-102.272-70.848-228-70.848-81.728 0-156.288 31.712t-128.576 85.728-85.728 128.576-31.712 156.288 31.712 156.288 85.728 128.576 128.576 85.728 156.288 31.712 156.288-31.712 128.576-85.728 85.728-128.576 31.712-156.288q0-125.728-70.848-228l196-196q21.152-21.152 21.152-51.424z"  horiz-adv-x="1024" />

    
    <glyph glyph-name="star" unicode="&#58931;" d="M1020.192 494.176c-8.864 25.568-31.616 44.288-59.008 48.352l-266.432 39.616-115.808 240.448c-12.192 25.248-38.272 41.408-66.944 41.408s-54.752-16.16-66.944-41.408l-115.808-240.448-266.464-39.616c-27.36-4.064-50.112-22.784-58.944-48.352-8.8-25.632-2.144-53.856 17.184-73.12l195.264-194.944-45.28-270.432c-4.608-27.232 7.2-54.56 30.336-70.496 12.704-8.736 27.648-13.184 42.592-13.184 12.288 0 24.608 3.008 35.776 8.992l232.288 125.056 232.32-125.056c11.168-5.984 23.488-8.992 35.744-8.992 14.944 0 29.888 4.448 42.624 13.184 23.136 15.936 34.88 43.264 30.304 70.496l-45.312 270.432 195.328 194.944c19.296 19.296 25.92 47.52 17.184 73.12zM754.816 276.384c-16.384-16.32-23.808-39.328-20.064-61.888l45.312-270.432-232.32 124.992c-11.136 6.016-23.424 8.992-35.776 8.992-12.288 0-24.608-3.008-35.744-8.992l-232.32-124.992 45.312 270.432c3.776 22.56-3.648 45.568-20.032 61.888l-195.264 194.944 266.432 39.68c24.352 3.616 45.312 18.848 55.776 40.576l115.872 240.384 115.84-240.416c10.496-21.728 31.424-36.928 55.744-40.576l266.496-39.68-195.264-194.912z"  horiz-adv-x="1024" />

    
    <glyph glyph-name="right" unicode="&#59150;" d="M983.68 362.592l-320-352a31.872 31.872 0 0 0-45.12-2.24c-13.12 11.84-14.08 32-2.208 45.12l271.328 298.56H64c-17.6 0-32 14.4-32 32s14.4 32 32 32h823.68l-271.328 298.56a31.904 31.904 0 1 0 47.328 42.88l320-352c11.232-12.16 11.232-30.72 0-42.88"  horiz-adv-x="1024" />

    
    <glyph glyph-name="cc-write" unicode="&#59059;" d="M343.207 324.775c-0.584-0.746-1.168-1.524-1.428-2.465l-45.016-165.044c-2.63-9.609 0.064-19.962 7.173-27.263 5.323-5.192 12.334-8.049 19.799-8.049 2.466 0 4.932 0.292 7.367 0.942l163.873 44.693c0.262 0 0.392-0.228 0.585-0.228 1.883 0 3.733 0.682 5.13 2.111l438.196 438.134c13.016 13.031 20.156 30.784 20.156 50.097 0 21.893-9.283 43.768-25.545 59.98l-41.383 41.447c-16.227 16.261-38.136 25.56-60.013 25.56-19.309 0-37.063-7.142-50.113-20.139l-438.134-438.25c-0.452-0.42-0.323-1.038-0.649-1.526M896.01 650.513l-43.524-43.494-70.56 71.682 42.909 42.908c6.783 6.815 19.928 5.825 27.717-1.995l41.412-41.448c4.321-4.317 6.786-10.061 6.786-15.74-0.032-4.66-1.689-8.879-4.74-11.912M421.137 317.895l316.191 316.212 70.597-71.731-315.609-315.592-71.179 71.111zM363.526 189.692l22.849 83.869 60.953-60.955-83.803-22.914zM923.763 476.886c-16.586 0-30.187-13.486-30.249-30.298l0-408.484c0-21.422-17.398-38.819-38.853-38.819l-691.002 0c-21.421 0-38.885 17.396-38.885 38.819l0 666.726c0 21.439 17.463 38.851 38.885 38.851l445.046 0c16.681 0 30.218 13.55 30.218 30.235 0 16.649-13.537 30.216-30.218 30.216l-449.655 0c-52.222 0-94.725-42.47-94.725-94.725l0-675.913c0-52.254 42.504-94.709 94.725-94.709l700.186 0c52.258 0 94.744 42.454 94.744 94.709l0 413.29c-0.068 16.617-13.631 30.104-30.217 30.104z"  horiz-adv-x="1024" />

    
    <glyph glyph-name="daochu" unicode="&#58946;" d="M889.6 791.3c-7.6 0-15.2-2.9-21-8.7L401.8 315.9c-11.6-11.6-11.6-30.4 0-42 5.8-5.8 13.4-8.7 21-8.7s15.2 2.9 21 8.7l466.7 466.7c11.6 11.6 11.6 30.4 0 42-5.7 5.8-13.3 8.7-20.9 8.7zM868.6 27.4H155.4V740.6h267.4c7.6 0 15.2 2.9 21 8.7 5.8 5.8 8.7 13.4 8.7 21s-2.9 15.2-8.7 21c-5.8 5.8-13.4 8.7-21 8.7H155.4C122.6 800 96 773.4 96 740.6v-713.1c0-32.8 26.6-59.4 59.4-59.4h713.1c32.8 0 59.4 26.6 59.4 59.4V294.9c0 7.6-2.9 15.2-8.7 21-5.8 5.8-13.4 8.7-21 8.7s-15.2-2.9-21-8.7c-5.8-5.8-8.7-13.4-8.7-21v-267.5zM868.6 800h-208c-7.6 0-15.2-2.9-21-8.7-5.8-5.8-8.7-13.4-8.7-21s2.9-15.2 8.7-21c5.8-5.8 13.4-8.7 21-8.7h208v-208c0-7.6 2.9-15.2 8.7-21 5.8-5.8 13.4-8.7 21-8.7s15.2 2.9 21 8.7c5.8 5.8 8.7 13.4 8.7 21v208c0 32.8-26.6 59.4-59.4 59.4z"  horiz-adv-x="1024" />

    
    <glyph glyph-name="copy" unicode="&#58916;" d="M96 704h512A96 96 0 0 0 704 608v-640A96 96 0 0 0 608-128h-512A96 96 0 0 0 0-32v640A96 96 0 0 0 96 704z m0-64a32 32 0 0 1-32-32v-640a32 32 0 0 1 32-32h512a32 32 0 0 1 32 32v640a32 32 0 0 1-32 32h-512z m298.688 183.872a32 32 0 0 0-42.752 47.616A95.744 95.744 0 0 0 416 896h512A96 96 0 0 0 1024 800v-640a96 96 0 0 0-96-96h-69.952a32 32 0 1 0 0 64H928a32 32 0 0 1 32 32v640a32 32 0 0 1-32 32h-512a31.744 31.744 0 0 1-21.312-8.128zM160 192a32 32 0 1 0 0 64h384a32 32 0 1 0 0-64h-384z m0-128a32 32 0 1 0 0 64h384a32 32 0 1 0 0-64h-384z m0 256a32 32 0 0 0 0 64h384a32 32 0 0 0 0-64h-384z"  horiz-adv-x="1024" />

    
    <glyph glyph-name="move" unicode="&#58887;" d="M840.704 640h-36.992c-82.624 0-82.496 128-140.864 128H311.232C245.44 768 192 714.56 192 648.704V512h64V648.704C256 679.168 280.832 704 311.232 704h339.456c3.968-6.144 9.024-15.36 12.672-22.208C684.8 642.24 720.704 576 803.712 576h36.992C869.12 576 896 544.896 896 512v-392.768c0-30.4-24.832-55.232-55.296-55.232H311.232c-30.4 0-55.232 24.832-55.232 55.232V192h-64v-72.768C192 53.376 245.44 0 311.232 0H840.64C906.56 0 960 53.376 960 119.232V512c0 65.856-53.44 128-119.296 128zM497.344 202.176L630.4 332.032c0.128 0.128 0.192 0.32 0.32 0.512 2.816 2.816 5.184 9.536 6.784 13.248 1.344 3.456 1.856 0.64 2.112 4.096 0 0.768 0.384 1.408 0.384 2.112 0 0.512-0.256 0.896-0.256 1.344-0.192 3.84-0.896 5.76-2.24 9.344-1.344 3.264-3.52 6.016-5.76 8.64-0.512 0.64-0.768 1.536-1.344 2.112L497.344 506.368c-12.8 12.864-33.6 6.976-46.4-5.888-12.864-12.8-12.864-33.6 0-46.464l76.864-70.976-429.632-0.064c-18.752 0-33.984-12.8-33.92-30.912-0.064-18.112 15.168-29.696 33.984-29.696h429.632l-76.864-79.552c-12.864-12.864-12.864-33.6 0-46.528 6.4-6.4 14.72-3.776 23.168-3.776s16.832 3.328 23.168 9.664z"  horiz-adv-x="1024" />

    
    <glyph glyph-name="folder-add-line" unicode="&#59297;" d="M529.664 682.666667H896a42.666667 42.666667 0 0 0 42.666667-42.666667v-597.333333a42.666667 42.666667 0 0 0-42.666667-42.666667H128a42.666667 42.666667 0 0 0-42.666667 42.666667V725.333333a42.666667 42.666667 0 0 0 42.666667 42.666667h316.330667l85.333333-85.333333zM170.666667 682.666667v-597.333334h682.666666V597.333333h-358.997333l-85.333333 85.333334H170.666667z m298.666666-298.666667V512h85.333334v-128h128v-85.333333h-128v-128h-85.333334v128H341.333333v85.333333h128z"  horiz-adv-x="1024" />

    
    <glyph glyph-name="zhuangxiang" unicode="&#58892;" d="M923.92 832.05H99.71A35.7 35.7 0 0 1 64 796.35v-824.21a35.7 35.7 0 0 1 35.7-35.7h824.22a35.7 35.7 0 0 1 35.7 35.7V796.35a35.7 35.7 0 0 1-35.7 35.7z m-521.37-57.28h221V555.7h-221z m499.79-781h-781v781h224v-240.84a35.52 35.52 0 0 1 35.52-35.52h264.5a35.52 35.52 0 0 1 35.52 35.52V774.77h221.46z"  horiz-adv-x="1024" />

    
    <glyph glyph-name="setting" unicode="&#59153;" d="M512 672c0 17.6 14.4 32 32 32L960 704c17.6 0 32-14.4 32-32 0-17.63200001-14.4-32-32-32l-416 0c-17.6 0-32 14.368-32 32z m-256 0c0-35.23199999 28.8-64 64-64s64 28.76800001 64 64c0 35.2-28.8 64-64 64s-64-28.8-64-64z m192 0a127.968 127.968 0 0 0-251.84-32.00000001L64 640c-17.6 0-32 14.368-32 32 0 17.6 14.4 32 32 32l132.16 0A127.968 127.968 0 0 0 448 672z m192-288c0-35.23199999 28.8-64 64-64s64 28.76800001 63.99999999 64c0 35.2-28.8 64-63.99999999 64s-64-28.8-64-64z m187.84-32A127.968 127.968 0 0 0 576.00000001 384a127.968 127.968 0 0 0 251.83999999 32L960 416c17.6 0 32-14.4 32-32 0-17.63200001-14.4-32-32-32l-132.16 0zM512 384c0-17.63200001-14.4-32-32-32l-416 0c-17.6 0-32 14.368-32 32 0 17.6 14.4 32 32 32L480 416c17.6 0 32-14.4 32-32z m0-288c0 17.6 14.4 32 32 32L960 128c17.6 0 32-14.4 32-32 0-17.63200001-14.4-32-32-32l-416 0c-17.6 0-32 14.368-32 32z m-256 0c0-35.23199999 28.8-64 64-64s64 28.76800001 64 64c0 35.2-28.8 64-64 64s-64-28.8-64-64z m192 0a127.968 127.968 0 0 0-251.84-32L64 64c-17.6 0-32 14.368-32 32 0 17.6 14.4 32 32 32l132.16 1e-8A127.968 127.968 0 0 0 448 96z"  horiz-adv-x="1024" />

    
    <glyph glyph-name="refresh" unicode="&#58882;" d="M895.469672 384.254803c0 146.498562-82.099856 273.805016-202.78859 338.470805l22.072715 46.630017c-4.50664 12.609179-18.382673 19.176758-30.991852 14.670118l-92.436272-33.040511c-12.609179-4.50664-19.176758-18.382673-14.670117-30.991852l33.04051-92.436272c4.50664-12.609179 18.382673-19.176758 30.991852-14.670117l24.581861 51.929719c99.069343-54.335513 166.240185-159.596881 166.240185-280.561907 0-165.56685-125.817544-301.747415-287.057855-318.14692v-0.022513c-17.730826 0-32.105209-14.374382-32.105208-32.105209 0-17.730826 14.374382-32.105209 32.105208-32.105208a32.234145 32.234145 0 0 1 6.135744 0.592494C744.270041 21.960407 895.469672 185.435619 895.469672 384.254803zM480.616222 766.76052c-0.041956 0-0.082888-0.00307-0.124843-0.00307v0.00307l-0.047072-0.004093c-1.892093-0.010233-3.744277-0.189312-5.545297-0.5137-194.674794-18.529005-346.957083-182.459588-346.957083-381.987924 0-147.431817 83.146699-275.42798 205.097168-339.700819l-24.814152-52.419883c4.50664-12.609179 18.382673-19.176758 30.991852-14.670118l92.436272 33.040511c12.609179 4.50664 19.176758 18.382673 14.670118 30.991851l-33.040511 92.436273c-4.50664 12.609179-18.382673 19.176758-30.991851 14.670117l-21.853727-46.167482c-100.326986 53.964052-168.535461 159.920246-168.535461 281.81955 0 166.089759 126.616746 302.591643 288.588721 318.284044v0.014326c0.041956 0 0.082888-0.00307 0.124843-0.00307 17.730826 0 32.105209 14.374382 32.105209 32.105209 0.001023 17.730826-14.373359 32.105209-32.104186 32.105208z"  horiz-adv-x="1024" />

    
    <glyph glyph-name="tag" unicode="&#59218;" d="M323.008 109.248c-52.928 0-96 43.072-96 96s43.072 96 96 96 96-43.072 96-96S375.936 109.248 323.008 109.248zM323.008 237.248c-17.632 0-32-14.336-32-32s14.368-32 32-32 32 14.336 32 32S340.64 237.248 323.008 237.248zM416.096-31.072 284.224-31.072c-159.936 0-186.912 59.232-186.912 192l0 140.8c0 74.272 14.304 96.256 70.72 150.976l327.04 319.904c36.576 35.488 105.888 35.392 142.304 0.096l263.072-256.032c18.336-17.792 28.864-43.552 28.864-70.656 0-27.296-10.656-53.28-29.248-71.264l-290.016-294.592C544.544 15.584 497.216-31.072 416.096-31.072zM566.24 736.512c-10.496 0-20.16-3.52-26.528-9.696l-327.04-319.936c-49.952-48.48-51.36-54.528-51.36-105.152l0-140.8c0-110.272 8.352-128 122.912-128l131.872 0c52.672 0 83.744 28.48 148.992 92.8l26.656 26.144 263.232 268.256c6.784 6.592 10.336 15.808 10.336 25.888 0 9.888-3.424 18.88-9.472 24.736l-263.072 256.032C586.432 732.96 576.736 736.512 566.24 736.512z"  horiz-adv-x="1024" />

    
    <glyph glyph-name="document" unicode="&#59141;" d="M832 0V544h-160c-52.768 0-96 43.2-96 96V800H224c-17.6 0-32-14.4-32-32v-768c0-17.6 14.4-32 32-32h576c17.632 0 32 14.4 32 32zM640 754.88V640c0-17.6 14.4-32 32-32h114.912L640 754.88z m254.72-170.88c0.96-2.56 1.28-5.12 1.28-8v-576c0-52.8-43.2-96-96-96H224c-52.768 0-96 43.2-96 96V768c0 52.8 43.232 96 96 96h384c2.912 0 5.44-0.32 8-1.28 1.632 0 2.912-0.64 4.512-1.28 3.84-1.6 7.328-3.84 10.208-6.72l256-256c2.912-2.88 5.12-6.4 6.72-10.24 0.64-1.6 1.28-2.88 1.28-4.48zM288 96a32 32 0 0 0 32 32h384a32 32 0 1 0 0-64H320a32 32 0 0 0-32 32z m32 128a32 32 0 1 0 0 64h192a32 32 0 1 0 0-64h-192z"  horiz-adv-x="1024" />

    
    <glyph glyph-name="folder-o" unicode="&#59030;" d="M914.285714 146.285714v402.285715A54.857143 54.857143 0 0 1 859.428571 603.428571h-402.285714A54.857143 54.857143 0 0 0 402.285714 658.285714v36.571429A54.857143 54.857143 0 0 1 347.428571 749.714286h-182.857142A54.857143 54.857143 0 0 1 109.714286 694.857143v-548.571429A54.857143 54.857143 0 0 1 164.571429 91.428571h694.857142a54.857143 54.857143 0 0 1 54.857143 54.857143z m73.142857 402.285715v-402.285715c0-70.290286-57.709714-128-128-128h-694.857142A128.512 128.512 0 0 0 36.571429 146.285714v548.571429C36.571429 765.147429 94.281143 822.857143 164.571429 822.857143h182.857142C417.718857 822.857143 475.428571 765.147429 475.428571 694.857143V676.571429h384C929.718857 676.571429 987.428571 618.861714 987.428571 548.571429z"  horiz-adv-x="1024" />

    
    <glyph glyph-name="search" unicode="&#58977;" d="M786.526717 154.645039C854.696182 233.24226699999997 895.951115 335.815551 895.951115 448.024443 895.951115 695.4345109999999 695.38561 896 447.975557 896 200.565505 896 0 695.4345109999999 0 448.024443 0 200.614374 200.565505 0.048885000000041146 447.975557 0.048885000000041146 560.143357 0.048885000000041146 662.682626 41.27362800000003 741.268611 109.39841000000001L969.314056-118.64701600000001C981.684069-131.0170290000001 1002.126281-131.199073 1014.622368-118.70297800000003 1027.205585-106.11976300000003 1027.093431-85.92165299999999 1014.566403-73.39465299999995L786.526717 154.645039 786.526717 154.645039 786.526717 154.645039 786.526717 154.645039 786.526717 154.645039 786.526717 154.645039 786.526717 154.645039ZM447.975557 64.04539399999999C235.909784 64.04539399999999 63.996508 235.95866999999998 63.996508 448.024443 63.996508 660.090216 235.909784 832.003492 447.975557 832.003492 660.04133 832.003492 831.954606 660.090216 831.954606 448.024443 831.954606 235.95866999999998 660.04133 64.04539399999999 447.975557 64.04539399999999L447.975557 64.04539399999999 447.975557 64.04539399999999 447.975557 64.04539399999999 447.975557 64.04539399999999 447.975557 64.04539399999999 447.975557 64.04539399999999Z"  horiz-adv-x="1025" />

    
    <glyph glyph-name="trash" unicode="&#58970;" d="M960 640v-32h-64v-608a128 128 0 0 0-128-128H256a128 128 0 0 0-128 128V608H64V640H32V672a128 128 0 0 0 128 128h132.544A128 128 0 0 0 416 896h192a128 128 0 0 0 123.456-96H864a128 128 0 0 0 128-128v-32h-32zM256-64h512a64 64 0 0 1 64 64V608H192l-4.448-608A68 68 0 0 1 256-64zM608 832h-192a63.808 63.808 0 0 1-55.104-32h302.176A63.808 63.808 0 0 1 608 832z m256-96H160a64 64 0 0 1-64-64h832a64 64 0 0 1-64 64zM320 480a32 32 0 0 0 32-32v-352a32 32 0 0 0-64 0V448a32 32 0 0 0 32 32z m192 0a32 32 0 0 0 32-32v-352a32 32 0 0 0-64 0V448a32 32 0 0 0 32 32z m192 0a32 32 0 0 0 32-32v-352a32 32 0 0 0-64 0V448a32 32 0 0 0 32 32z"  horiz-adv-x="1024" />

    
    <glyph glyph-name="caidan" unicode="&#58945;" d="M160 723.537067h704a32 32 0 1 0 0-64h-704a32 32 0 1 0 0 64z m0-320h704a32 32 0 0 0 0-64h-704a32 32 0 1 0 0 64z m0-298.666667h704a32 32 0 0 0 0-64h-704a32 32 0 1 0 0 64z"  horiz-adv-x="1024" />

    
    <glyph glyph-name="chehui" unicode="&#58947;" d="M237.303467 518.784l113.152-106.026667c16.584533-16.763733 33.6512-43.933867 17.066666-60.693333-16.597333-16.759467-39.227733-16.759467-55.816533 0L138.368 527.6032c-13.162667 13.2608-14.122667 34.491733-0.96 47.752533l174.301867 178.2784c16.5888 16.759467 39.223467 16.759467 55.812266 0s-0.477867-43.933867-17.066666-60.689066L238.775467 582.784h380.881066c153.211733 0 276.343467-132.881067 276.343467-285.738667 0-152.853333-123.136-298.845867-276.343467-298.845866H213.457067c-23.317333 0-42.88 10.824533-42.88 34.133333 0 23.313067 19.562667 29.870933 42.88 29.870933h402.816c102.762667 0 215.714133 132.322133 215.714133 234.845867s-112.951467 221.725867-215.714133 221.725867H237.303467z"  horiz-adv-x="1024" />

    
    <glyph glyph-name="fasong" unicode="&#58958;" d="M742.894933 695.2832L154.436267 596.6464a8.533333 8.533333 0 0 1-5.077334-13.960533L222.357333 497.28a17.066667 17.066667 0 0 1 19.1232-4.834133l503.658667 194.645333a4.266667 4.266667 0 0 1-2.24 8.192z m-110.024533-626.274133l240.042667 593.019733a8.533333 8.533333 0 0 1-11.191467 11.076267L302.762667 440.029867a12.8 12.8 0 0 1-4.5568-20.416l320.439466-353.1392a8.533333 8.533333 0 0 1 14.229334 2.5344z m-353.083733 3.861333c-14.677333-8.234667-33.211733-4.928-36.3008-4.548267-23.432533 2.875733-37.482667 24.2432-34.602667 47.68L192 425.365333l-86.724267 103.68c-31.965867 33.8688-30.318933 87.069867 3.677867 118.830934a84.561067 84.561067 0 0 0 47.4496 22.1184l691.464533 94.293333c46.3104 5.674667 88.520533-27.080533 94.280534-73.1648 1.9712-15.786667-0.597333-31.803733-7.406934-46.186667L700.599467 43.818667c-19.882667-41.984-70.225067-59.9296-112.443734-40.093867a84.625067 84.625067 0 0 0-25.553066 18.500267L409.079467 191.232c-0.849067-0.597333-43.946667-40.0512-129.2928-118.365867z m-21.3504 271.253333l10.2528-177.685333a8.533333 8.533333 0 0 1 14.528-5.568l71.057066 70.5152a17.066667 17.066667 0 0 1 0.9472 23.210667L273.442133 350.165333a8.533333 8.533333 0 0 1-15.005866-6.0416z"  horiz-adv-x="1024" />

    
    <glyph glyph-name="gengduo" unicode="&#58963;" d="M166.4 298.666667c-35.345067 0-64 28.654933-64 64 0 35.345067 28.654933 64 64 64 35.345067 0 64-28.654933 64-64 0-35.345067-28.654933-64-64-64z m341.333333 0c-35.345067 0-64 28.654933-64 64 0 35.345067 28.654933 64 64 64 35.345067 0 64-28.654933 64-64 0-35.345067-28.654933-64-64-64z m341.333334 0c-35.345067 0-64 28.654933-64 64 0 35.345067 28.654933 64 64 64 35.345067 0 64-28.654933 64-64 0-35.345067-28.654933-64-64-64z"  horiz-adv-x="1024" />

    
    <glyph glyph-name="gengduo1" unicode="&#58964;" d="M465.066667 725.333333c0 35.345067 28.654933 64 64 64 35.345067 0 64-28.654933 64-64 0-35.345067-28.654933-64-64-64-35.345067 0-64 28.654933-64 64z m0-341.333333c0 35.345067 28.654933 64 64 64 35.345067 0 64-28.654933 64-64 0-35.345067-28.654933-64-64-64-35.345067 0-64 28.654933-64 64z m0-341.333333c0 35.345067 28.654933 64 64 64 35.345067 0 64-28.654933 64-64 0-35.345067-28.654933-64-64-64-35.345067 0-64 28.654933-64 64z"  horiz-adv-x="1024" />

    
    <glyph glyph-name="guanbi" unicode="&#58965;" d="M514.133333 429.256533l286.613334 286.613334a32 32 0 1 0 45.256533-45.256534L559.389867 384l286.613333-286.613333a32 32 0 1 0-45.256533-45.256534L514.133333 338.743467l-286.613333-286.613334a32 32 0 1 0-45.256533 45.256534L468.8768 384 182.263467 670.613333a32 32 0 1 0 45.256533 45.256534l286.613333-286.613334z"  horiz-adv-x="1024" />

    
    <glyph glyph-name="huati" unicode="&#58968;" d="M704 597.333333l36.394667 181.956267A39.035733 39.035733 0 0 0 778.666667 810.666667a26.235733 26.235733 0 0 0 25.728-31.377067L768 597.333333h138.666667a32 32 0 1 0 0-64H755.2l-59.733333-298.666666h211.2a32 32 0 1 0 0-64H682.666667l-36.394667-181.956267A39.035733 39.035733 0 0 0 608-42.666667a26.235733 26.235733 0 0 0-25.728 31.377067L618.666667 170.666667H320l-36.394667-181.956267A39.035733 39.035733 0 0 0 245.333333-42.666667a26.235733 26.235733 0 0 0-25.728 31.377067L256 170.666667H117.333333a32 32 0 1 0 0 64H268.8l59.733333 298.666666H117.333333a32 32 0 0 0 0 64H341.333333l36.394667 181.956267A39.035733 39.035733 0 0 0 416 810.666667a26.235733 26.235733 0 0 0 25.728-31.377067L405.333333 597.333333h298.666667z m-12.8-64H392.533333l-59.733333-298.666666h298.666667l59.733333 298.666666z"  horiz-adv-x="1024" />

    
    <glyph glyph-name="kehufuwu" unicode="&#58978;" d="M355.0208 450.026667c-35.562667 38.114133-57.322667 89.271467-57.322667 145.5104 0 117.819733 95.5136 213.333333 213.333334 213.333333s213.333333-95.5136 213.333333-213.333333c0-56.1408-21.687467-107.221333-57.1392-145.309867 182.7712-45.7984 273.237333-182.481067 271.415467-410.043733-0.379733-46.8608-38.472533-84.650667-85.333334-84.650667H170.709333c-46.7712 0-84.829867 37.653333-85.329066 84.424533-2.432 227.370667 87.4496 364.061867 269.640533 410.069334z m158.144 0.443733c81.297067 0 147.2 65.902933 147.2 147.2 0 81.2928-65.902933 147.2-147.2 147.2-81.297067 0-147.2-65.9072-147.2-147.2 0-81.297067 65.902933-147.2 147.2-147.2z m361.450667-413.738667c-0.0128 1.6512-0.0256 3.114667-0.046934 4.4032-3.848533 254.242133-115.217067 349.602133-363.101866 349.602134-248.093867 0-359.1168-94.638933-362.077867-350.237867-0.0128-1.1264-0.0256-2.397867-0.029867-3.8144a17.066667 17.066667 0 0 1 17.066667-17.152h691.1232a17.066667 17.066667 0 0 1 17.066667 17.194667z m-363.584 260.138667c23.5648 0 34.133333-19.106133 34.133333-42.666667v-85.333333c0-23.5648-10.568533-42.666667-34.133333-42.666667s-29.866667 19.101867-29.866667 42.666667v85.333333c0 23.560533 6.301867 42.666667 29.866667 42.666667z"  horiz-adv-x="1024" />

    
    <glyph glyph-name="lingdang" unicode="&#58981;" d="M511.8208 744.8704c-141.444267 0-320.110933-136-320.110933-277.444267l-0.042667-188.215466 0.3328-131.6736h639.9744l-0.093867 131.140266 0.046934 188.7488c0 141.444267-178.6624 277.444267-320.106667 277.444267z m384.059733-277.444267v-173.0048l0.093867-125.550933c0.021333-47.1296-38.165333-85.3504-85.290667-85.376h-0.042666l-597.444267 0.042667c-47.074133 0-85.256533 38.1184-85.333333 85.1968l-0.200534 126.0032v172.689066c0 188.573867 195.537067 341.444267 384.106667 341.444267 188.573867 0 384.110933-152.8704 384.110933-341.444267zM373.333333 19.537067h277.333334a32 32 0 1 0 0-64h-277.333334a32 32 0 1 0 0 64z"  horiz-adv-x="1024" />

    
    <glyph glyph-name="luntan" unicode="&#58982;" d="M511.575104-40.471369c-18.695436 0-36.965975 7.223237-52.262241 21.669709l-0.424896 0.424897L350.539419 86.99751H172.082988c-46.738589 0-84.979253 38.240664-84.979254 84.979253V726.041494c0 46.738589 38.240664 84.979253 84.979254 84.979253h679.834024c46.738589 0 84.979253-38.240664 84.979254-84.979253v-554.064731c0-46.738589-38.240664-84.979253-84.979254-84.979253h-178.456431l-110.048133-106.224066c-15.296266-14.446473-33.566805-21.244813-51.837344-21.244813z m-8.922822 67.983402c5.948548-5.523651 11.472199-5.523651 17.420747 0l127.46888 123.219917h203.950207c11.897095 0 21.244813 9.347718 21.244813 21.244813V726.041494c0 11.897095-9.347718 21.244813-21.244813 21.244813H172.082988c-11.897095 0-21.244813-9.347718-21.244814-21.244813v-554.064731c0-11.897095 9.347718-21.244813 21.244814-21.244813h204.375103l126.194191-123.219917z"  horiz-adv-x="1024" />

    
    <glyph glyph-name="queren" unicode="&#58990;" d="M388.612267 158.481067L841.787733 611.1616a32.136533 32.136533 0 0 0 45.448534-0.021333 32.157867 32.157867 0 0 0-0.017067-45.469867L419.037867 97.578667c-16.661333-16.657067-43.6736-16.657067-60.334934 0.008533l-0.0128 0.0128-221.038933 221.282133a31.8336 31.8336 0 0 0-0.004267 44.996267 31.816533 31.816533 0 0 0 44.9792 0.042667l205.986134-205.435734z"  horiz-adv-x="1024" />

    
    <glyph glyph-name="shanchu" unicode="&#58992;" d="M768.426667-44.462933H256c-43.093333 0-81.493333 37.546667-84.906667 84.053333V680.8704h682.666667l0.426667-640v-1.28c-3.84-46.506667-42.24-84.053333-85.76-84.053333zM234.666667 43.4304c1.706667-13.226667 12.8-23.893333 21.333333-23.893333h512.853333c8.533333 0 19.626667 10.666667 21.333334 23.893333l-0.853334 573.44H234.666667v-573.44zM117.333333 680.8704h789.333334c17.493333 0 32-14.506667 32-32s-14.506667-32-32-32h-789.333334c-17.493333 0-32 14.506667-32 32s14.506667 32 32 32zM373.333333 808.8704h277.333334c17.493333 0 32-14.506667 32-32s-14.506667-32-32-32h-277.333334c-17.493333 0-32 14.506667-32 32s14.506667 32 32 32zM469.333333 392.8704v-149.333333c0-17.493333-14.506667-32-32-32s-32 14.506667-32 32v149.333333c0 17.493333 14.506667 32 32 32s32-14.506667 32-32zM618.666667 392.8704v-149.333333c0-17.493333-14.506667-32-32-32s-32 14.506667-32 32v149.333333c0 17.493333 14.506667 32 32 32s32-14.506667 32-32z"  horiz-adv-x="1024" />

    
    <glyph glyph-name="shezhi" unicode="&#58995;" d="M362.474667 767.624533h303.317333a123.349333 123.349333 0 0 0 106.824533-61.696l151.658667-262.749866a123.400533 123.400533 0 0 0 0-123.370667l-151.658667-262.7584a123.349333 123.349333 0 0 0-106.824533-61.691733h-303.317333a123.349333 123.349333 0 0 0-106.824534 61.696l-151.658666 262.754133a123.400533 123.400533 0 0 0 0 123.370667l151.658666 262.754133a123.349333 123.349333 0 0 0 106.824534 61.696z m0-64a59.349333 59.349333 0 0 1-51.396267-29.6832L159.419733 411.178667a59.400533 59.400533 0 0 1 0-59.383467L311.082667 89.04533300000003a59.349333 59.349333 0 0 1 51.396266-29.687466h303.317334a59.349333 59.349333 0 0 1 51.396266 29.687466l151.658667 262.754134a59.400533 59.400533 0 0 1 0 59.383466L717.184 673.941333a59.349333 59.349333 0 0 1-51.396267 29.6832h-303.317333zM512 234.66666699999996c-82.474667 0-149.333333 66.858667-149.333333 149.333333s66.858667 149.333333 149.333333 149.333333 149.333333-66.858667 149.333333-149.333333-66.858667-149.333333-149.333333-149.333333z m0 64c47.1296 0 85.333333 38.203733 85.333333 85.333333s-38.203733 85.333333-85.333333 85.333333-85.333333-38.203733-85.333333-85.333333 38.203733-85.333333 85.333333-85.333333z"  horiz-adv-x="1024" />

    
    <glyph glyph-name="shengxu" unicode="&#58999;" d="M512.7552 598.3488L414.549333 499.515733l-0.1408-0.1408c-16.712533-16.669867-43.7888-29.422933-60.48-12.693333-16.7808 16.8192-16.797867 35.498667-0.0384 52.305067l129.220267 129.536 0.119467 0.1152c16.465067 16.384 43.106133 16.298667 59.502933-0.187734l128.955733-129.591466c16.763733-16.853333 16.759467-35.5328-0.0128-52.343467l-0.1408-0.1408c-16.746667-16.631467-43.822933-3.7248-60.475733 13.0432l-98.304 98.9312zM512.7552 163.959467L414.549333 262.784l-0.1408 0.1408c-16.712533 16.674133-43.7888 29.4272-60.48 12.6976-16.7808-16.8192-16.797867-35.498667-0.0384-52.305067l129.220267-129.536 0.119467-0.119466c16.465067-16.375467 43.106133-16.2944 59.502933 0.192l128.955733 129.591466c16.763733 16.849067 16.759467 35.5328-0.0128 52.3392a42.8032 42.8032 0 0 1-0.1408 0.1408c-16.746667 16.635733-43.822933 3.7248-60.475733-13.0432l-98.304-98.926933z"  horiz-adv-x="1024" />

    
    <glyph glyph-name="shijian" unicode="&#59000;" d="M213.340415 86.347419c-165.93049 165.93049-165.93049 434.962058 0 600.892548 165.934739 165.93049 434.966307 165.93049 600.896797 0 165.93049-165.93049 165.93049-434.962058 0-600.892548-165.93049-165.934739-434.962058-165.934739-600.892548 0z m45.068747 45.064498c141.044315-141.040066 369.719237-141.040066 510.759303 0 141.044315 141.044315 141.044315 369.719237 0 510.759303-141.040066 141.044315-369.714988 141.044315-510.759303 0-141.040066-141.040066-141.040066-369.714988 0-510.759303z m190.183568 241.876448l0.169959 185.199535c0.016996 23.114357 10.397212 41.852282 33.511568 41.873527 23.110108 0.021245 29.275353-18.712432 29.258357-41.822539l-0.148714-166.244913 171.318175 0.157212c23.114357 0.016996 41.843784-6.148249 41.822539-29.262606-0.016996-23.110108-18.763419-33.490324-41.873527-33.511569l-189.682191-0.169958a41.61434 41.61434 0 0 0-26.717477 9.6239 41.720564 41.720564 0 0 0-17.65444 34.157411z"  horiz-adv-x="1024" />

    
    <glyph glyph-name="shoucang" unicode="&#59001;" d="M385.399467-21.154133c-61.8624-33.006933-138.376533-8.866133-170.897067 53.9136a130.107733 130.107733 0 0 0-12.714667 81.476266l24.174934 143.061334-102.4128 101.320533c-50.048 49.5104-51.072 130.820267-2.286934 181.610667a125.905067 125.905067 0 0 0 72.418134 37.4528l141.538133 20.872533 63.296 130.1632c30.933333 63.6032 106.807467 89.719467 169.480533 58.325333 24.96-12.501333 45.1584-32.9984 57.472-58.325333l63.300267-130.1632 141.533867-20.872533c69.162667-10.197333 117.0816-75.370667 107.0336-145.565867a129.109333 129.109333 0 0 0-36.9024-73.4976l-102.4128-101.320533 24.174933-143.061334c11.818667-69.909333-34.449067-136.302933-103.330133-148.292266a124.919467 124.919467 0 0 0-80.2816 12.9024l-126.592 67.5456-126.592-67.541334z m150.6944 127.227733l132.6208-70.762667a60.919467 60.919467 0 0 1 39.172266-6.314666c33.988267 5.9136 57.181867 39.202133 51.2 74.5728l-25.28 149.623466a51.2 51.2 0 0 0 14.472534 44.928l107.144533 105.992534a65.109333 65.109333 0 0 1 18.56 37.077333c5.077333 35.498667-18.922667 68.1472-53.0176 73.173333l-148.224 21.858134a51.2 51.2 0 0 0-38.574933 28.2624l-66.2528 136.2432c-6.178133 12.701867-16.238933 22.912-28.578134 29.0944-30.690133 15.3728-67.8656 2.577067-83.268266-29.098667l-66.2528-136.234667a51.2 51.2 0 0 0-38.570667-28.266666l-148.224-21.858134a61.909333 61.909333 0 0 1-35.601067-18.466133c-24.558933-25.570133-24.0384-66.875733 1.1392-91.784533l107.144534-105.992534a51.2 51.2 0 0 0 14.472533-44.928l-25.284267-149.623466a66.107733 66.107733 0 0 1 6.442667-41.3696c16.174933-31.232 53.636267-43.050667 83.938133-26.888534l132.616534 70.762667a51.2 51.2 0 0 0 48.2048 0z"  horiz-adv-x="1024" />

    
    <glyph glyph-name="shujufenxi" unicode="&#59003;" d="M149.346133 21.064533h756.718934c17.6768 0 32-13.294933 32-30.967466a32 32 0 0 0-32-32H117.998933a32 32 0 0 0-32 32V776.533333a32 32 0 0 0 32 32c17.672533 0 31.3472-14.327467 31.3472-32v-755.4688zM479.146667 480.64l-209.1776-207.5904a32 32 0 0 0-47.940267 42.397867l230.020267 231.163733a32 32 0 0 0 44.765866 3.1232l138.9568-141.9008 245.184 243.2a32 32 0 1 0 47.2832-43.127467l-266.065066-266.094933a32 32 0 0 0-44.433067-2.756267L479.146667 480.635733z"  horiz-adv-x="1024" />

    
    <glyph glyph-name="shuaxin" unicode="&#59004;" d="M831.636714 594.854772V728.667353v0.144464c0.084979 21.032365 12.950838 38.01122 33.983203 37.93049 21.138589-0.084979 28.786722-16.944863 28.786722-38.074954V498.679502c0.021245-16.723917-14.306257-29.300846-31.034423-29.279602H633.987718c-21.130091 0-38.274656 12.874357-38.334141 34.0002v0.097726c0 21.05361 17.072332 29.65351 38.130191 29.65351H788.182573c-52.916581 91.378191-162.977461 169.979751-276.182573 169.979751-168.981245 0-318.672199-148.675452-318.672199-317.635452 0-168.955751 149.741942-319.819419 318.723187-319.819419 142.569693 0 271.444979 114.475552 305.411186 246.422838h0.029743c0 21.117344 15.942108 36.923485 37.063701 36.923485 21.121593 0 32.27512-20.055104 32.275121-41.172448-35.410855-174.547386-189.750174-305.925311-374.779751-305.925311-211.224432 0-382.457627 171.207701-382.457627 382.406639 0 211.194689 171.233195 382.406639 382.457627 382.406639 125.063967 0 249.805012-79.081693 319.585726-171.887535z m-30.018921-95.690888L788.182573 531.936133c-2.689593 3.577627 2.855303-2.268946 0 1.219452l75.304365 21.227817c-28.485046 0.038241-54.102041-23.598739-54.059552-55.7039l22.209328 96.17527c19.961627-22.060614 15.389743 6.262971 30.082655-19.116083l20.904897-43.806805v-32.768h-81.006473z"  horiz-adv-x="1024" />

    
    <glyph glyph-name="tianjia" unicode="&#59008;" d="M546.133333 416.337067h360.533334a32 32 0 1 0 0-64H546.133333v-364.8a32 32 0 1 0-64 0v364.8H117.333333a32 32 0 1 0 0 64H482.133333v360.533333a32 32 0 0 0 64 0v-360.533333z"  horiz-adv-x="1024" />

    
    <glyph glyph-name="tianjiawenjian" unicode="&#59009;" d="M426.666667 641.386667c23.5648 0 42.666667-14.327467 42.666666-32 0-17.672533-19.101867-32-42.666666-32H341.3376c-23.560533 0-42.666667 14.327467-42.666667 32 0 17.672533 19.106133 32 42.666667 32h85.333333z m0-170.257067c23.5648 0 42.666667-14.327467 42.666666-32 0-17.672533-19.101867-32-42.666666-32H341.333333c-23.560533 0-42.6624 14.327467-42.6624 32 0 17.672533 19.101867 32 42.666667 32H426.666667z m435.170133-131.886933c-23.560533 0-29.866667 19.101867-29.866667 42.666666V729.6a17.066667 17.066667 0 0 1-17.066666 17.066667H209.066667a17.066667 17.066667 0 0 1-17.066667-17.066667v-691.2a17.066667 17.066667 0 0 1 17.066667-17.066667h260.258133c23.560533 0 42.666667-6.301867 42.666667-29.866666s-19.106133-34.133333-42.666667-34.133334H213.329067C166.203733-42.666667 128-4.462933 128 42.666667V725.333333c0 47.1296 38.203733 85.333333 85.333333 85.333334h597.307734c47.125333 0 85.329067-38.203733 85.329066-85.333334v-343.424c0-23.5648-10.568533-42.666667-34.133333-42.666666zM716.8 140.8v83.2a32 32 0 1 0 64 0V140.8h83.2a32 32 0 1 0 0-64H780.8v-87.466667a32 32 0 1 0-64 0V76.8h-87.466667a32 32 0 1 0 0 64H716.8z"  horiz-adv-x="1024" />

    
    <glyph glyph-name="tupian" unicode="&#59010;" d="M150.976 272.989867L321.152 445.269333c30.336 30.72 79.752533 31.287467 110.792533 1.28L857.6 38.570667a9.975467 9.975467 0 0 1 17.066667 7.022933V728.814933a17.066667 17.066667 0 0 1-17.066667 17.066667H168.042667a17.066667 17.066667 0 0 1-17.066667-17.066667v-455.825066z m0-91.076267v-143.338667a17.066667 17.066667 0 0 1 17.066667-17.066666l594.816-0.149334a7.394133 7.394133 0 0 1 5.141333 12.714667l-380.544 366.464a14.7712 14.7712 0 0 1-20.778667-0.238933l-215.701333-218.385067zM170.666667 810.666667h682.666666c47.1296 0 85.333333-38.203733 85.333334-85.333334v-682.666666c0-47.1296-38.203733-85.333333-85.333334-85.333334H170.666667c-47.1296 0-85.333333 38.203733-85.333334 85.333334V725.333333c0 47.1296 38.203733 85.333333 85.333334 85.333334z m533.333333-298.666667c-35.345067 0-64 28.654933-64 64 0 35.345067 28.654933 64 64 64 35.345067 0 64-28.654933 64-64 0-35.345067-28.654933-64-64-64z"  horiz-adv-x="1024" />

    
    <glyph glyph-name="xihuan" unicode="&#59016;" d="M158.058667 298.385067C113.134933 347.963733 85.333333 416.584533 85.333333 492.4032c0 151.214933 110.592 273.800533 247.018667 273.800533 70.784 0 134.613333-33.002667 179.648-85.879466 45.034667 52.8768 108.864 85.879467 179.648 85.879466C828.074667 766.203733 938.666667 643.618133 938.666667 492.4032c0-79.68-30.7072-151.4112-79.7184-201.4464l-284.347734-306.504533c-31.978667-36.4928-85.9648-38.749867-120.584533-5.038934-1.088 1.053867-99.882667 107.3792-296.405333 318.967467h0.448zM425.984 103.509333a172946.589867 172946.589867 0 0 1 69.8624-75.136l3.554133-3.810133c-0.64 0.682667-0.5504 0.593067-0.439466 0.465067l0.068266-0.1152c8.277333-7.722667 19.694933-7.121067 27.434667 1.7152l0.597333 0.682666 285.559467 307.805867 0.605867 0.622933c38.698667 39.5008 61.44 95.765333 61.44 156.6592 0 117.252267-83.4944 209.800533-183.018667 209.800534-49.621333 0-96.401067-22.839467-130.926933-63.377067l-35.729067-41.949867a17.066667 17.066667 0 0 0-25.984 0l-35.729067 41.949867c-34.525867 40.533333-81.3056 63.377067-130.926933 63.377067C232.827733 702.203733 149.333333 609.659733 149.333333 492.4032c0-57.984 20.603733-111.812267 56.149334-151.048533l17.501866-19.3152C312.068267 226.1248 379.733333 153.284267 425.984 103.5136z"  horiz-adv-x="1024" />

    
    <glyph glyph-name="youjiantou" unicode="&#59020;" d="M604.7488 382.34026700000004l-196.292267-196.9024a36.872533 36.872533 0 0 1-1.041066-50.978134 33.8048 33.8048 0 0 1 48.810666-1.019733l218.2144 218.478933c16.648533 16.669867 16.64 43.677867-0.0256 60.330667L455.466667 631.082667a33.493333 33.493333 0 0 1-48.349867-1.041067 36.5312 36.5312 0 0 1 1.041067-50.496l196.590933-197.201067z"  horiz-adv-x="1024" />

    
    <glyph glyph-name="zhankai" unicode="&#59024;" d="M511.8592 293.71733300000005l196.906667 196.296534a36.872533 36.872533 0 0 0 50.973866 1.041066 33.8048 33.8048 0 0 0 1.024-48.810666l-218.4832-218.2144c-16.6656-16.6528-43.677867-16.64-60.330666 0.0256L263.125333 443.003733a33.493333 33.493333 0 0 0 1.041067 48.3456 36.5312 36.5312 0 0 0 50.491733-1.041066l197.205334-196.586667z"  horiz-adv-x="1024" />

    


  </font>
</defs>
</svg>
